<svg width="29" height="20" viewBox="0 0 29 20" fill="none" xmlns="http://www.w3.org/2000/svg">
<path d="M1 17.0914C1 17.8981 1.90598 18.3728 2.56921 17.9136L12.8124 10.8222C13.3868 10.4245 13.3868 9.57545 12.8124 9.1778L2.56921 2.08636C1.90598 1.6272 1 2.10189 1 2.90856V17.0914Z" fill="white"/>
<path d="M15 17.0914C15 17.8981 15.906 18.3728 16.5692 17.9136L26.8124 10.8222C27.3868 10.4245 27.3868 9.57545 26.8124 9.1778L16.5692 2.08636C15.906 1.6272 15 2.10189 15 2.90856V17.0914Z" fill="white"/>
<path d="M1 17.0914C1 17.8981 1.90598 18.3728 2.56921 17.9136L12.8124 10.8222C13.3868 10.4245 13.3868 9.57545 12.8124 9.1778L2.56921 2.08636C1.90598 1.6272 1 2.10189 1 2.90856V17.0914Z" stroke="#9F8654" stroke-width="2"/>
<path d="M15 17.0914C15 17.8981 15.906 18.3728 16.5692 17.9136L26.8124 10.8222C27.3868 10.4245 27.3868 9.57545 26.8124 9.1778L16.5692 2.08636C15.906 1.6272 15 2.10189 15 2.90856V17.0914Z" stroke="#9F8654" stroke-width="2"/>
</svg>
