<svg width="73" height="77" viewBox="0 0 73 77" fill="none" xmlns="http://www.w3.org/2000/svg">
<circle cx="36.5" cy="36.5" r="35.5" fill="#7CFF91" stroke="#47744F" stroke-width="2"/>
<mask id="path-2-outside-1_3_6" maskUnits="userSpaceOnUse" x="12" y="11" width="50" height="51" fill="black">
<rect fill="white" x="12" y="11" width="50" height="51"/>
<path d="M37.0153 59.64C32.5353 59.64 28.6099 58.6587 25.2393 56.696C21.8686 54.7333 19.2659 52.024 17.4313 48.568C15.5966 45.112 14.6366 41.144 14.5513 36.664C14.6366 32.184 15.5966 28.216 17.4313 24.76C19.2659 21.304 21.8686 18.5947 25.2393 16.632C28.6099 14.6693 32.5353 13.688 37.0153 13.688C41.4953 13.688 45.3993 14.6693 48.7273 16.632C52.0979 18.5947 54.7006 21.3253 56.5353 24.824C58.4126 28.28 59.3939 32.2267 59.4793 36.664C59.3939 41.1013 58.4126 45.0693 56.5353 48.568C54.7006 52.024 52.0979 54.7333 48.7273 56.696C45.3993 58.6587 41.4953 59.64 37.0153 59.64ZM37.0153 54.2C40.4286 54.2 43.3939 53.432 45.9113 51.896C48.4286 50.36 50.3486 48.2693 51.6713 45.624C52.9939 42.9787 53.6553 39.992 53.6553 36.664C53.6553 33.336 52.9939 30.3493 51.6713 27.704C50.3486 25.0587 48.4286 22.968 45.9113 21.432C43.3939 19.896 40.4286 19.128 37.0153 19.128C33.5593 19.128 30.5726 19.896 28.0553 21.432C25.5806 22.968 23.6819 25.0587 22.3593 27.704C21.0366 30.3493 20.3753 33.336 20.3753 36.664C20.3753 39.992 21.0366 42.9787 22.3593 45.624C23.6819 48.2693 25.5806 50.36 28.0553 51.896C30.5726 53.432 33.5593 54.2 37.0153 54.2Z"/>
</mask>
<path d="M37.0153 59.64C32.5353 59.64 28.6099 58.6587 25.2393 56.696C21.8686 54.7333 19.2659 52.024 17.4313 48.568C15.5966 45.112 14.6366 41.144 14.5513 36.664C14.6366 32.184 15.5966 28.216 17.4313 24.76C19.2659 21.304 21.8686 18.5947 25.2393 16.632C28.6099 14.6693 32.5353 13.688 37.0153 13.688C41.4953 13.688 45.3993 14.6693 48.7273 16.632C52.0979 18.5947 54.7006 21.3253 56.5353 24.824C58.4126 28.28 59.3939 32.2267 59.4793 36.664C59.3939 41.1013 58.4126 45.0693 56.5353 48.568C54.7006 52.024 52.0979 54.7333 48.7273 56.696C45.3993 58.6587 41.4953 59.64 37.0153 59.64ZM37.0153 54.2C40.4286 54.2 43.3939 53.432 45.9113 51.896C48.4286 50.36 50.3486 48.2693 51.6713 45.624C52.9939 42.9787 53.6553 39.992 53.6553 36.664C53.6553 33.336 52.9939 30.3493 51.6713 27.704C50.3486 25.0587 48.4286 22.968 45.9113 21.432C43.3939 19.896 40.4286 19.128 37.0153 19.128C33.5593 19.128 30.5726 19.896 28.0553 21.432C25.5806 22.968 23.6819 25.0587 22.3593 27.704C21.0366 30.3493 20.3753 33.336 20.3753 36.664C20.3753 39.992 21.0366 42.9787 22.3593 45.624C23.6819 48.2693 25.5806 50.36 28.0553 51.896C30.5726 53.432 33.5593 54.2 37.0153 54.2Z" fill="white"/>
<path d="M25.2393 56.696L26.2456 54.9676L25.2393 56.696ZM17.4313 48.568L15.6647 49.5058L17.4313 48.568ZM14.5513 36.664L12.5516 36.6259L12.5509 36.664L12.5516 36.7021L14.5513 36.664ZM17.4313 24.76L19.1978 25.6978H19.1978L17.4313 24.76ZM25.2393 16.632L24.2329 14.9036L24.2329 14.9036L25.2393 16.632ZM48.7273 16.632L47.7113 18.3548L47.7209 18.3603L48.7273 16.632ZM56.5353 24.824L54.764 25.7528L54.7708 25.7658L54.7778 25.7787L56.5353 24.824ZM59.4793 36.664L61.4789 36.7025L61.4796 36.664L61.4789 36.6255L59.4793 36.664ZM56.5353 48.568L54.7729 47.6224L54.7687 47.6302L56.5353 48.568ZM48.7273 56.696L47.7209 54.9676L47.7113 54.9733L48.7273 56.696ZM45.9113 51.896L44.8695 50.1887L45.9113 51.896ZM51.6713 45.624L53.4601 46.5184L53.4601 46.5184L51.6713 45.624ZM51.6713 27.704L53.4601 26.8096L53.4601 26.8096L51.6713 27.704ZM45.9113 21.432L44.8695 23.1393L45.9113 21.432ZM28.0553 21.432L27.0135 19.7247L27.007 19.7287L27.0005 19.7327L28.0553 21.432ZM22.3593 27.704L20.5704 26.8096V26.8096L22.3593 27.704ZM22.3593 45.624L20.5704 46.5184L22.3593 45.624ZM28.0553 51.896L27.0005 53.5953L27.007 53.5993L27.0135 53.6033L28.0553 51.896ZM37.0153 57.64C32.8355 57.64 29.2677 56.7274 26.2456 54.9676L24.2329 58.4244C27.9521 60.59 32.235 61.64 37.0153 61.64V57.64ZM26.2456 54.9676C23.1981 53.1932 20.8583 50.7581 19.1978 47.6302L15.6647 49.5058C17.6736 53.2899 20.539 56.2735 24.2329 58.4244L26.2456 54.9676ZM19.1978 47.6302C17.5305 44.4895 16.6311 40.8377 16.5509 36.6259L12.5516 36.7021C12.6421 41.4503 13.6627 45.7345 15.6647 49.5058L19.1978 47.6302ZM16.5509 36.7021C16.6311 32.4903 17.5305 28.8385 19.1978 25.6978L15.6647 23.8222C13.6627 27.5935 12.6421 31.8777 12.5516 36.6259L16.5509 36.7021ZM19.1978 25.6978C20.8583 22.5699 23.1981 20.1348 26.2456 18.3603L24.2329 14.9036C20.539 17.0545 17.6736 20.0381 15.6647 23.8222L19.1978 25.6978ZM26.2456 18.3603C29.2677 16.6006 32.8355 15.688 37.0153 15.688V11.688C32.235 11.688 27.9521 12.738 24.2329 14.9036L26.2456 18.3603ZM37.0153 15.688C41.1957 15.688 44.7373 16.6008 47.7113 18.3547L49.7432 14.9093C46.0612 12.7378 41.7948 11.688 37.0153 11.688V15.688ZM47.7209 18.3603C50.7621 20.1312 53.1017 22.5828 54.764 25.7528L58.3065 23.8952C56.2995 20.0679 53.4338 17.0581 49.7336 14.9036L47.7209 18.3603ZM54.7778 25.7787C56.4835 28.9187 57.3997 32.5439 57.4796 36.7025L61.4789 36.6255C61.3882 31.9094 60.3417 27.6413 58.2927 23.8693L54.7778 25.7787ZM57.4796 36.6255C57.3997 40.7838 56.4835 44.4345 54.7729 47.6224L58.2976 49.5136C60.3417 45.7041 61.3882 41.4189 61.4789 36.7025L57.4796 36.6255ZM54.7687 47.6302C53.1082 50.7581 50.7684 53.1932 47.7209 54.9676L49.7336 58.4244C53.4275 56.2735 56.2929 53.2899 58.3018 49.5058L54.7687 47.6302ZM47.7113 54.9733C44.7373 56.7271 41.1957 57.64 37.0153 57.64V61.64C41.7948 61.64 46.0612 60.5902 49.7432 58.4187L47.7113 54.9733ZM37.0153 56.2C40.7373 56.2 44.0752 55.3592 46.953 53.6033L44.8695 50.1887C42.7127 51.5048 40.1199 52.2 37.0153 52.2V56.2ZM46.953 53.6033C49.7917 51.8712 51.9701 49.4984 53.4601 46.5184L49.8824 44.7296C48.7271 47.0403 47.0655 48.8488 44.8695 50.1887L46.953 53.6033ZM53.4601 46.5184C54.9382 43.5623 55.6553 40.2632 55.6553 36.664H51.6553C51.6553 39.7207 51.0497 42.395 49.8824 44.7296L53.4601 46.5184ZM55.6553 36.664C55.6553 33.0647 54.9382 29.7657 53.4601 26.8096L49.8824 28.5984C51.0497 30.933 51.6553 33.6073 51.6553 36.664H55.6553ZM53.4601 26.8096C51.9701 23.8296 49.7917 21.4568 46.953 19.7247L44.8695 23.1393C47.0655 24.4792 48.7271 26.2877 49.8824 28.5984L53.4601 26.8096ZM46.953 19.7247C44.0752 17.9688 40.7373 17.128 37.0153 17.128V21.128C40.1199 21.128 42.7127 21.8232 44.8695 23.1393L46.953 19.7247ZM37.0153 17.128C33.2557 17.128 29.8951 17.9665 27.0135 19.7247L29.097 23.1393C31.2501 21.8255 33.8628 21.128 37.0153 21.128V17.128ZM27.0005 19.7327C24.2063 21.4671 22.0559 23.8386 20.5704 26.8096L24.1481 28.5984C25.3079 26.2787 26.9549 24.4689 29.11 23.1313L27.0005 19.7327ZM20.5704 26.8096C19.0923 29.7657 18.3753 33.0647 18.3753 36.664H22.3753C22.3753 33.6073 22.9808 30.933 24.1481 28.5984L20.5704 26.8096ZM18.3753 36.664C18.3753 40.2633 19.0923 43.5623 20.5704 46.5184L24.1481 44.7296C22.9808 42.395 22.3753 39.7207 22.3753 36.664H18.3753ZM20.5704 46.5184C22.0559 49.4894 24.2063 51.8609 27.0005 53.5953L29.11 50.1967C26.9549 48.8591 25.3079 47.0493 24.1481 44.7296L20.5704 46.5184ZM27.0135 53.6033C29.8951 55.3615 33.2557 56.2 37.0153 56.2V52.2C33.8628 52.2 31.2501 51.5025 29.097 50.1887L27.0135 53.6033Z" fill="#47744F" mask="url(#path-2-outside-1_3_6)"/>
</svg>
