<svg width="73" height="77" viewBox="0 0 73 77" fill="none" xmlns="http://www.w3.org/2000/svg">
<circle cx="36.5" cy="36.5" r="35.5" fill="#FF7C7C" stroke="#844444" stroke-width="2"/>
<mask id="path-2-outside-1_3_9" maskUnits="userSpaceOnUse" x="16" y="12" width="43" height="50" fill="black">
<rect fill="white" x="16" y="12" width="43" height="50"/>
<path d="M21.5353 59.32C20.8099 59.32 20.1699 59.064 19.6153 58.552C19.1033 57.9973 18.8473 57.3573 18.8473 56.632C18.8473 55.9493 19.0393 55.352 19.4233 54.84L34.2073 36.664L19.5513 18.616C19.1673 18.104 18.9753 17.5067 18.9753 16.824C18.9753 16.0133 19.2313 15.352 19.7433 14.84C20.2979 14.2853 20.9806 14.008 21.7913 14.008C22.2606 14.008 22.7086 14.1147 23.1353 14.328C23.5619 14.5413 23.9033 14.8187 24.1593 15.16L37.6633 32.312L51.1673 15.032C51.6366 14.3493 52.3406 14.008 53.2793 14.008C54.0473 14.008 54.7086 14.2853 55.2633 14.84C55.8179 15.352 56.0953 15.992 56.0953 16.76C56.0953 17.3573 55.9246 17.8907 55.5833 18.36L40.7993 36.6L55.5833 54.776C55.9673 55.2027 56.1593 55.7573 56.1593 56.44C56.1593 57.2507 55.8819 57.9333 55.3273 58.488C54.8153 59.0427 54.1326 59.32 53.2793 59.32C52.3406 59.32 51.5726 58.9147 50.9753 58.104L37.2793 40.888L23.7753 58.168C23.1353 58.936 22.3886 59.32 21.5353 59.32Z"/>
</mask>
<path d="M21.5353 59.32C20.8099 59.32 20.1699 59.064 19.6153 58.552C19.1033 57.9973 18.8473 57.3573 18.8473 56.632C18.8473 55.9493 19.0393 55.352 19.4233 54.84L34.2073 36.664L19.5513 18.616C19.1673 18.104 18.9753 17.5067 18.9753 16.824C18.9753 16.0133 19.2313 15.352 19.7433 14.84C20.2979 14.2853 20.9806 14.008 21.7913 14.008C22.2606 14.008 22.7086 14.1147 23.1353 14.328C23.5619 14.5413 23.9033 14.8187 24.1593 15.16L37.6633 32.312L51.1673 15.032C51.6366 14.3493 52.3406 14.008 53.2793 14.008C54.0473 14.008 54.7086 14.2853 55.2633 14.84C55.8179 15.352 56.0953 15.992 56.0953 16.76C56.0953 17.3573 55.9246 17.8907 55.5833 18.36L40.7993 36.6L55.5833 54.776C55.9673 55.2027 56.1593 55.7573 56.1593 56.44C56.1593 57.2507 55.8819 57.9333 55.3273 58.488C54.8153 59.0427 54.1326 59.32 53.2793 59.32C52.3406 59.32 51.5726 58.9147 50.9753 58.104L37.2793 40.888L23.7753 58.168C23.1353 58.936 22.3886 59.32 21.5353 59.32Z" fill="white"/>
<path d="M19.6153 58.552L18.1456 59.9086L18.1999 59.9673L18.2587 60.0216L19.6153 58.552ZM19.4233 54.84L17.8717 53.578L17.8469 53.6085L17.8233 53.64L19.4233 54.84ZM34.2073 36.664L35.7588 37.926L36.7845 36.665L35.7598 35.4032L34.2073 36.664ZM19.5513 18.616L17.9513 19.816L17.9744 19.8468L17.9987 19.8768L19.5513 18.616ZM19.7433 14.84L18.329 13.4258L18.329 13.4258L19.7433 14.84ZM23.1353 14.328L24.0297 12.5391H24.0297L23.1353 14.328ZM24.1593 15.16L22.5593 16.36L22.5733 16.3788L22.5878 16.3972L24.1593 15.16ZM37.6633 32.312L36.0918 33.5492L37.6691 35.5525L39.2391 33.5435L37.6633 32.312ZM51.1673 15.032L52.7431 16.2635L52.7807 16.2154L52.8153 16.1651L51.1673 15.032ZM55.2633 14.84L53.849 16.2542L53.8773 16.2825L53.9067 16.3096L55.2633 14.84ZM55.5833 18.36L57.137 19.6193L57.1699 19.5787L57.2007 19.5363L55.5833 18.36ZM40.7993 36.6L39.2455 35.3407L38.223 36.6022L39.2477 37.862L40.7993 36.6ZM55.5833 54.776L54.0317 56.038L54.0632 56.0768L54.0967 56.1139L55.5833 54.776ZM55.3273 58.488L53.913 57.0738L53.8848 57.1021L53.8576 57.1314L55.3273 58.488ZM50.9753 58.104L52.5854 56.9176L52.5634 56.8878L52.5404 56.8589L50.9753 58.104ZM37.2793 40.888L38.8444 39.6429L37.2653 37.6579L35.7034 39.6565L37.2793 40.888ZM23.7753 58.168L25.3117 59.4484L25.3318 59.4243L25.3511 59.3995L23.7753 58.168ZM21.5353 57.32C21.3348 57.32 21.1736 57.2687 20.9718 57.0824L18.2587 60.0216C19.1662 60.8593 20.285 61.32 21.5353 61.32V57.32ZM21.0849 57.1954C20.8986 56.9937 20.8472 56.8325 20.8472 56.632H16.8473C16.8473 57.8822 17.3079 59.001 18.1456 59.9086L21.0849 57.1954ZM20.8472 56.632C20.8472 56.3514 20.9167 56.182 21.0233 56.04L17.8233 53.64C17.1618 54.522 16.8473 55.5473 16.8473 56.632H20.8472ZM20.9748 56.102L35.7588 37.926L32.6557 35.402L17.8717 53.578L20.9748 56.102ZM35.7598 35.4032L21.1038 17.3552L17.9987 19.8768L32.6547 37.9248L35.7598 35.4032ZM21.1512 17.416C21.0447 17.274 20.9753 17.1046 20.9753 16.824H16.9753C16.9753 17.9087 17.2898 18.934 17.9513 19.816L21.1512 17.416ZM20.9753 16.824C20.9753 16.4744 21.0669 16.3448 21.1575 16.2542L18.329 13.4258C17.3956 14.3592 16.9753 15.5522 16.9753 16.824H20.9753ZM21.1575 16.2542C21.3233 16.0884 21.4912 16.008 21.7913 16.008V12.008C20.47 12.008 19.2726 12.4822 18.329 13.4258L21.1575 16.2542ZM21.7913 16.008C21.9449 16.008 22.0871 16.04 22.2408 16.1169L24.0297 12.5391C23.33 12.1893 22.5763 12.008 21.7913 12.008V16.008ZM22.2408 16.1169C22.4229 16.2079 22.5106 16.2951 22.5593 16.36L25.7592 13.96C25.2959 13.3422 24.7009 12.8748 24.0297 12.5391L22.2408 16.1169ZM22.5878 16.3972L36.0918 33.5492L39.2347 31.0748L25.7307 13.9228L22.5878 16.3972ZM39.2391 33.5435L52.7431 16.2635L49.5914 13.8005L36.0874 31.0805L39.2391 33.5435ZM52.8153 16.1651C52.8656 16.0919 52.8982 16.0741 52.9198 16.0636C52.9508 16.0486 53.0525 16.008 53.2793 16.008V12.008C51.7839 12.008 50.4159 12.5947 49.5192 13.8989L52.8153 16.1651ZM53.2793 16.008C53.5042 16.008 53.6605 16.0656 53.849 16.2542L56.6775 13.4258C55.7567 12.505 54.5903 12.008 53.2793 12.008V16.008ZM53.9067 16.3096C54.0431 16.4356 54.0953 16.5391 54.0953 16.76H58.0953C58.0953 15.4449 57.5927 14.2684 56.6198 13.3704L53.9067 16.3096ZM54.0953 16.76C54.0953 16.9479 54.0508 17.0667 53.9658 17.1837L57.2007 19.5363C57.7984 18.7146 58.0953 17.7668 58.0953 16.76H54.0953ZM54.0295 17.1007L39.2455 35.3407L42.353 37.8593L57.137 19.6193L54.0295 17.1007ZM39.2477 37.862L54.0317 56.038L57.1348 53.514L42.3508 35.338L39.2477 37.862ZM54.0967 56.1139C54.1058 56.1241 54.1147 56.1356 54.1253 56.1662C54.1376 56.202 54.1593 56.2858 54.1593 56.44H58.1593C58.1593 55.362 57.845 54.2993 57.0698 53.4381L54.0967 56.1139ZM54.1593 56.44C54.1593 56.7401 54.0788 56.908 53.913 57.0738L56.7415 59.9022C57.685 58.9587 58.1593 57.7613 58.1593 56.44H54.1593ZM53.8576 57.1314C53.7756 57.2204 53.6548 57.32 53.2793 57.32V61.32C54.6104 61.32 55.8549 60.865 56.7969 59.8446L53.8576 57.1314ZM53.2793 57.32C53.0281 57.32 52.8377 57.2601 52.5854 56.9176L49.3651 59.2904C50.3075 60.5693 51.653 61.32 53.2793 61.32V57.32ZM52.5404 56.8589L38.8444 39.6429L35.7141 42.1331L49.4101 59.3491L52.5404 56.8589ZM35.7034 39.6565L22.1994 56.9365L25.3511 59.3995L38.8551 42.1195L35.7034 39.6565ZM22.2388 56.8876C21.9063 57.2866 21.6904 57.32 21.5353 57.32V61.32C23.0867 61.32 24.3642 60.5854 25.3117 59.4484L22.2388 56.8876Z" fill="#844444" mask="url(#path-2-outside-1_3_9)"/>
</svg>
